<svg width="500" height="500" viewBox="0 0 500 500" fill="none" xmlns="http://www.w3.org/2000/svg">
<rect width="500" height="500" rx="120" fill="#EFEFEF"/>
<path d="M72.856 283C69.016 283 65.368 282.168 61.912 280.504C58.52 278.776 55.736 276.344 53.56 273.208C51.448 270.008 50.392 266.264 50.392 261.976C50.392 257.752 51.288 253.56 53.08 249.4C54.872 245.176 57.208 241.112 60.088 237.208C63.032 233.24 66.2 229.56 69.592 226.168C73.048 222.776 76.408 219.832 79.672 217.336C83 214.776 85.944 212.792 88.504 211.384C91.128 209.912 93.048 209.176 94.264 209.176C95.544 209.176 96.856 209.72 98.2 210.808C99.544 211.896 100.248 213.464 100.312 215.512C100.312 216.408 100.056 217.432 99.544 218.584C99.032 219.736 97.848 220.888 95.992 222.04C94.392 223 92.248 224.408 89.56 226.264C86.936 228.12 84.152 230.296 81.208 232.792C78.264 235.288 75.448 238.072 72.76 241.144C70.136 244.152 67.992 247.352 66.328 250.744C64.664 254.136 63.832 257.624 63.832 261.208C63.832 264.152 64.696 266.392 66.424 267.928C68.152 269.4 70.488 270.136 73.432 270.136C75.48 270.136 77.912 269.56 80.728 268.408C83.608 267.256 86.552 265.784 89.56 263.992C92.568 262.136 95.32 260.152 97.816 258.04C100.376 255.928 102.36 253.912 103.768 251.992C101.336 252.504 98.648 253.08 95.704 253.72C92.824 254.296 90.136 254.808 87.64 255.256C85.144 255.64 83.352 255.832 82.264 255.832C80.344 255.832 78.744 255.448 77.464 254.68C76.184 253.912 75.224 253.016 74.584 251.992C73.944 250.904 73.624 249.88 73.624 248.92C73.624 247.832 74.04 246.712 74.872 245.56C75.704 244.408 77.144 243.672 79.192 243.352C80.536 243.16 82.36 242.872 84.664 242.488C86.968 242.04 89.368 241.624 91.864 241.24C94.424 240.792 96.76 240.408 98.872 240.088C101.048 239.768 102.68 239.608 103.768 239.608C111.832 239.608 115.864 244.12 115.864 253.144C115.864 254.872 114.968 257.016 113.176 259.576C111.384 262.072 108.952 264.696 105.88 267.448C102.872 270.136 99.48 272.664 95.704 275.032C91.928 277.4 88.056 279.32 84.088 280.792C80.184 282.264 76.44 283 72.856 283ZM118.895 286.648C116.847 286.648 114.991 286.072 113.327 284.92C111.663 283.832 110.351 282.392 109.391 280.6C108.431 278.744 107.951 276.76 107.951 274.648C107.951 270.68 108.815 266.808 110.543 263.032C112.335 259.256 114.671 255.672 117.551 252.28C120.431 248.888 123.567 245.784 126.959 242.968C130.415 240.088 133.839 237.624 137.231 235.576C140.687 233.528 143.823 231.928 146.639 230.776C149.519 229.624 151.759 229.048 153.359 229.048C155.215 229.048 156.719 229.464 157.871 230.296C159.087 231.064 159.695 232.28 159.695 233.944C159.695 234.456 159.567 234.872 159.311 235.192C160.143 235.384 160.815 235.864 161.327 236.632C161.839 237.4 162.095 238.552 162.095 240.088C162.095 240.728 161.935 242.392 161.615 245.08C161.295 247.768 160.943 251.032 160.559 254.872C160.239 258.712 160.079 262.712 160.079 266.872C160.079 267.512 160.175 268.088 160.367 268.6C160.559 269.048 160.975 269.272 161.615 269.272C164.175 269.272 166.767 268.76 169.391 267.736C172.079 266.648 174.671 265.336 177.167 263.8C179.727 262.2 182.031 260.632 184.079 259.096C186.191 257.496 187.951 256.184 189.359 255.16C190.831 254.072 191.791 253.528 192.239 253.528C194.415 253.528 195.503 254.616 195.503 256.792C195.503 257.368 194.799 258.584 193.391 260.44C192.047 262.232 190.191 264.312 187.823 266.68C185.455 268.984 182.799 271.288 179.855 273.592C176.975 275.832 173.967 277.688 170.831 279.16C167.759 280.632 164.783 281.368 161.903 281.368C158.383 281.368 155.695 280.536 153.839 278.872C152.047 277.208 150.767 274.968 149.999 272.152C149.295 269.272 148.911 266.04 148.847 262.456C145.583 267.128 142.191 271.288 138.671 274.936C135.215 278.52 131.791 281.368 128.399 283.48C125.007 285.592 121.839 286.648 118.895 286.648ZM152.879 238.552C146.607 241.56 140.975 245.016 135.983 248.92C130.991 252.76 127.023 256.792 124.079 261.016C121.199 265.24 119.759 269.304 119.759 273.208C119.759 274.296 120.271 274.84 121.295 274.84C122.511 274.84 124.111 274.136 126.095 272.728C128.143 271.32 130.351 269.464 132.719 267.16C135.087 264.792 137.455 262.168 139.823 259.288C142.191 256.344 144.399 253.336 146.447 250.264C148.495 247.192 150.127 244.248 151.343 241.432C151.791 240.408 152.303 239.448 152.879 238.552ZM184.886 281.464C184.886 281.464 184.854 281.464 184.79 281.464C183.766 281.464 182.742 281.304 181.718 280.984C180.694 280.664 179.862 279.736 179.222 278.2C178.582 276.6 178.262 273.912 178.262 270.136C178.262 267.512 178.614 264.312 179.318 260.536C180.022 256.76 180.918 252.696 182.006 248.344C183.158 243.928 184.406 239.544 185.75 235.192C187.094 230.84 188.374 226.776 189.59 223C190.87 219.224 191.99 215.992 192.95 213.304C193.974 210.616 194.71 208.824 195.158 207.928C195.606 206.84 196.342 205.912 197.366 205.144C198.454 204.312 199.574 203.896 200.726 203.896C203.094 203.896 204.63 204.536 205.334 205.816C206.038 207.032 206.39 208.376 206.39 209.848C206.39 211.128 205.846 214.104 204.758 218.776C203.67 223.384 201.942 230.168 199.574 239.128C204.95 238.744 210.454 238.232 216.086 237.592C221.782 236.952 226.806 236.344 231.158 235.768C232.182 231.928 233.174 228.376 234.134 225.112C235.094 221.784 235.926 219 236.63 216.76C237.334 214.456 237.814 212.92 238.07 212.152C239.094 209.784 240.182 208.152 241.334 207.256C242.55 206.36 243.798 205.912 245.078 205.912C246.742 205.912 248.15 206.456 249.302 207.544C250.518 208.568 251.126 210.296 251.126 212.728C251.126 214.264 250.71 217.112 249.878 221.272C249.046 225.432 248.022 230.136 246.806 235.384C247.766 236.024 248.598 236.792 249.302 237.688C250.07 238.584 250.454 239.416 250.454 240.184C250.454 241.208 250.198 242.2 249.686 243.16C249.238 244.056 248.214 244.856 246.614 245.56C246.166 245.752 245.366 245.976 244.214 246.232C242.998 251.16 241.814 255.896 240.662 260.44C239.574 264.92 238.646 268.76 237.878 271.96C237.11 275.096 236.662 277.112 236.534 278.008C236.15 280.376 235.446 282.36 234.422 283.96C233.398 285.624 231.83 286.456 229.718 286.456C228.118 286.456 226.806 285.72 225.782 284.248C224.758 282.776 224.246 279.768 224.246 275.224C224.246 271.832 224.598 267.896 225.302 263.416C226.006 258.872 226.87 254.232 227.894 249.496C223.094 250.264 217.91 250.936 212.342 251.512C206.774 252.024 201.334 252.248 196.022 252.184C194.166 259.416 192.63 265.176 191.414 269.464C190.262 273.752 189.206 276.824 188.246 278.68C187.286 280.536 186.166 281.464 184.886 281.464ZM261.597 309.4C258.013 309.4 254.749 309.176 251.805 308.728C248.861 308.344 245.981 307.704 243.165 306.808C240.349 305.912 237.309 304.728 234.045 303.256C232.701 302.616 231.581 301.944 230.685 301.24C229.789 300.536 229.341 299.48 229.341 298.072C229.341 296.024 229.981 294.456 231.261 293.368C232.477 292.344 234.173 291.832 236.349 291.832C237.501 291.832 238.973 292.216 240.765 292.984C242.557 293.816 244.605 294.744 246.909 295.768C249.277 296.856 251.901 297.784 254.781 298.552C257.661 299.384 260.765 299.8 264.093 299.8C267.485 299.8 270.653 298.392 273.597 295.576C276.541 292.76 278.909 288.792 280.701 283.672C282.557 278.616 283.485 272.632 283.485 265.72C283.485 264.12 283.453 262.392 283.389 260.536C283.325 258.616 283.261 256.6 283.197 254.488C280.893 258.84 278.397 262.904 275.709 266.68C273.021 270.456 270.237 273.528 267.357 275.896C264.541 278.2 261.693 279.352 258.813 279.352C255.293 279.352 252.733 278.52 251.133 276.856C249.597 275.128 248.829 272.408 248.829 268.696C248.829 265.56 249.053 262.136 249.501 258.424C250.013 254.648 250.685 250.84 251.517 247C252.349 243.16 253.309 239.512 254.397 236.056C255.549 232.536 256.765 229.496 258.045 226.936C259.005 225.08 260.477 224.152 262.461 224.152C263.741 224.152 265.021 224.76 266.301 225.976C267.645 227.192 268.317 228.824 268.317 230.872C268.317 232.024 268.029 233.688 267.453 235.864C266.877 238.04 266.173 240.504 265.341 243.256C264.573 245.944 263.773 248.792 262.941 251.8C262.109 254.744 261.405 257.656 260.829 260.536C260.253 263.352 259.965 265.912 259.965 268.216C259.965 268.472 260.157 268.6 260.541 268.6C261.309 268.6 262.333 267.96 263.613 266.68C264.957 265.336 266.429 263.608 268.029 261.496C269.693 259.32 271.357 256.952 273.021 254.392C274.749 251.768 276.413 249.176 278.013 246.616C279.613 244.056 281.053 241.72 282.333 239.608C282.141 238.584 282.013 237.688 281.949 236.92C281.949 236.088 281.949 235.384 281.949 234.808C281.949 232.184 282.397 230.008 283.293 228.28C284.253 226.552 286.109 225.688 288.861 225.688C290.653 225.688 292.029 226.36 292.989 227.704C293.949 228.984 294.429 230.808 294.429 233.176C294.429 234.2 294.269 235.384 293.949 236.728C293.629 238.008 292.989 240.056 292.029 242.872L293.085 239.896C293.661 245.656 294.141 250.776 294.525 255.256C294.973 259.736 295.197 264.184 295.197 268.6C295.197 276.92 293.789 284.12 290.973 290.2C288.221 296.344 284.317 301.08 279.261 304.408C274.269 307.736 268.381 309.4 261.597 309.4ZM306.942 286.264C302.974 286.264 299.774 284.888 297.342 282.136C294.91 279.32 293.694 274.808 293.694 268.6C293.694 264.632 294.142 260.664 295.038 256.696C295.998 252.664 297.31 248.856 298.974 245.272C300.702 241.624 302.686 238.392 304.926 235.576C307.23 232.76 309.758 230.552 312.51 228.952C315.262 227.288 318.11 226.456 321.054 226.456C326.046 226.456 329.95 227.8 332.766 230.488C335.582 233.176 336.99 236.6 336.99 240.76C336.99 243.96 336.094 246.872 334.302 249.496C332.574 252.056 330.206 254.36 327.198 256.408C324.19 258.456 320.83 260.312 317.118 261.976C313.406 263.64 309.598 265.144 305.694 266.488C305.374 268.792 305.214 270.84 305.214 272.632C305.214 273.72 305.822 274.264 307.038 274.264C309.918 274.264 312.99 273.816 316.254 272.92C319.582 271.96 322.942 270.744 326.334 269.272C329.726 267.736 332.99 266.168 336.126 264.568C339.262 262.904 342.11 261.336 344.67 259.864C347.294 258.328 349.438 257.112 351.102 256.216C352.83 255.256 353.95 254.776 354.462 254.776C355.87 254.776 356.894 255.192 357.534 256.024C358.174 256.856 358.494 257.752 358.494 258.712C358.494 259.16 357.63 260.152 355.902 261.688C354.238 263.224 351.934 265.048 348.99 267.16C346.11 269.208 342.846 271.352 339.198 273.592C335.614 275.768 331.87 277.848 327.966 279.832C324.126 281.752 320.382 283.288 316.734 284.44C313.15 285.656 309.886 286.264 306.942 286.264ZM307.326 257.944C309.95 256.408 312.542 254.808 315.102 253.144C317.726 251.416 319.902 249.496 321.63 247.384C323.358 245.208 324.222 242.68 324.222 239.8C324.222 238.968 323.998 238.424 323.55 238.168C323.102 237.848 322.462 237.688 321.63 237.688C319.39 237.688 317.342 238.68 315.486 240.664C313.694 242.648 312.094 245.208 310.686 248.344C309.342 251.416 308.222 254.616 307.326 257.944ZM394.551 287.896C392.055 287.896 390.231 287.224 389.079 285.88C387.927 284.6 387.351 282.008 387.351 278.104C387.351 274.776 387.895 270.456 388.983 265.144C390.071 259.832 391.287 254.104 392.631 247.96C385.527 255.896 377.335 260.952 368.055 263.128C366.199 266.968 364.023 270.488 361.527 273.688C359.031 276.888 356.311 279.48 353.367 281.464C350.487 283.384 347.479 284.344 344.343 284.344C340.439 284.344 337.079 283.064 334.263 280.504C331.511 277.944 330.135 274.008 330.135 268.696C330.135 265.112 330.679 262.072 331.767 259.576C332.855 257.016 334.103 255.096 335.511 253.816C334.359 251.384 333.783 248.6 333.783 245.464C333.783 241.24 334.935 237.496 337.239 234.232C339.543 230.968 342.583 228.408 346.359 226.552C350.199 224.696 354.359 223.768 358.839 223.768C361.335 223.768 363.703 224.408 365.943 225.688C368.247 226.904 370.103 228.792 371.511 231.352C372.983 233.848 373.719 237.016 373.719 240.856C373.719 244.056 373.239 247.576 372.279 251.416C376.823 248.728 381.303 245.048 385.719 240.376C390.199 235.704 394.199 230.456 397.719 224.632C398.807 222.904 400.343 222.04 402.327 222.04C403.991 222.04 405.303 222.552 406.263 223.576C407.287 224.536 407.799 225.816 407.799 227.416C407.799 227.736 407.607 228.792 407.223 230.584C406.839 232.376 406.327 234.712 405.687 237.592C405.047 240.408 404.343 243.512 403.575 246.904C402.871 250.296 402.167 253.752 401.463 257.272C400.759 260.792 400.119 264.12 399.543 267.256C401.207 264.248 402.999 261.048 404.919 257.656C406.903 254.2 408.951 250.808 411.063 247.48C413.175 244.088 415.255 241.016 417.303 238.264C419.351 235.512 421.239 233.336 422.967 231.736C424.695 230.072 426.167 229.24 427.383 229.24C429.815 229.24 431.863 229.944 433.527 231.352C435.191 232.76 436.023 234.2 436.023 235.672C436.023 237.144 435.863 239.416 435.543 242.488C435.223 245.56 434.807 249.016 434.295 252.856C433.847 256.632 433.367 260.44 432.855 264.28C432.343 268.12 431.927 271.608 431.607 274.744C431.287 277.816 431.127 280.12 431.127 281.656C431.127 282.936 430.519 284.152 429.303 285.304C428.087 286.456 426.711 287.032 425.175 287.032C425.047 287.032 424.823 287.032 424.503 287.032C423.735 287.096 423.031 286.968 422.391 286.648C421.751 286.392 421.207 285.432 420.759 283.768C420.375 282.104 420.183 279.288 420.183 275.32C420.183 272.632 420.311 269.688 420.567 266.488C420.823 263.288 421.143 260.088 421.527 256.888C421.975 253.624 422.455 250.584 422.967 247.768C421.303 250.52 419.447 253.656 417.399 257.176C415.415 260.632 413.335 264.184 411.159 267.832C408.983 271.416 406.839 274.744 404.727 277.816C402.679 280.824 400.759 283.256 398.967 285.112C397.239 286.968 395.767 287.896 394.551 287.896ZM358.455 255.832C359.287 253.336 359.959 250.744 360.471 248.056C360.983 245.304 361.239 242.616 361.239 239.992C361.239 238.904 361.015 237.848 360.567 236.824C360.119 235.8 359.351 235.288 358.263 235.288C356.087 235.288 353.943 235.736 351.831 236.632C349.783 237.528 348.087 238.808 346.743 240.472C345.399 242.136 344.727 244.12 344.727 246.424C344.727 248.472 345.399 250.2 346.743 251.608C348.151 253.016 349.879 254.072 351.927 254.776C354.039 255.48 356.119 255.832 358.167 255.832C358.231 255.832 358.327 255.832 358.455 255.832ZM354.519 264.28C352.279 264.216 350.103 263.928 347.991 263.416C345.879 262.84 343.959 262.04 342.231 261.016C342.039 262.04 341.847 263.032 341.655 263.992C341.463 264.888 341.367 265.752 341.367 266.584C341.367 267.992 341.591 269.272 342.039 270.424C342.551 271.512 343.575 272.056 345.111 272.056C346.711 272.056 348.311 271.352 349.911 269.944C351.575 268.536 353.111 266.648 354.519 264.28Z" fill="#3366FF"/>
</svg>
