<svg width="414" height="400" viewBox="0 0 414 400" fill="none" xmlns="http://www.w3.org/2000/svg">
<rect x="3" width="400" height="400" rx="120" fill="#EFEFEF"/>
<path d="M29.856 233C26.016 233 22.368 232.168 18.912 230.504C15.52 228.776 12.736 226.344 10.56 223.208C8.448 220.008 7.392 216.264 7.392 211.976C7.392 207.752 8.288 203.56 10.08 199.4C11.872 195.176 14.208 191.112 17.088 187.208C20.032 183.24 23.2 179.56 26.592 176.168C30.048 172.776 33.408 169.832 36.672 167.336C40 164.776 42.944 162.792 45.504 161.384C48.128 159.912 50.048 159.176 51.264 159.176C52.544 159.176 53.856 159.72 55.2 160.808C56.544 161.896 57.248 163.464 57.312 165.512C57.312 166.408 57.056 167.432 56.544 168.584C56.032 169.736 54.848 170.888 52.992 172.04C51.392 173 49.248 174.408 46.56 176.264C43.936 178.12 41.152 180.296 38.208 182.792C35.264 185.288 32.448 188.072 29.76 191.144C27.136 194.152 24.992 197.352 23.328 200.744C21.664 204.136 20.832 207.624 20.832 211.208C20.832 214.152 21.696 216.392 23.424 217.928C25.152 219.4 27.488 220.136 30.432 220.136C32.48 220.136 34.912 219.56 37.728 218.408C40.608 217.256 43.552 215.784 46.56 213.992C49.568 212.136 52.32 210.152 54.816 208.04C57.376 205.928 59.36 203.912 60.768 201.992C58.336 202.504 55.648 203.08 52.704 203.72C49.824 204.296 47.136 204.808 44.64 205.256C42.144 205.64 40.352 205.832 39.264 205.832C37.344 205.832 35.744 205.448 34.464 204.68C33.184 203.912 32.224 203.016 31.584 201.992C30.944 200.904 30.624 199.88 30.624 198.92C30.624 197.832 31.04 196.712 31.872 195.56C32.704 194.408 34.144 193.672 36.192 193.352C37.536 193.16 39.36 192.872 41.664 192.488C43.968 192.04 46.368 191.624 48.864 191.24C51.424 190.792 53.76 190.408 55.872 190.088C58.048 189.768 59.68 189.608 60.768 189.608C68.832 189.608 72.864 194.12 72.864 203.144C72.864 204.872 71.968 207.016 70.176 209.576C68.384 212.072 65.952 214.696 62.88 217.448C59.872 220.136 56.48 222.664 52.704 225.032C48.928 227.4 45.056 229.32 41.088 230.792C37.184 232.264 33.44 233 29.856 233ZM75.8948 236.648C73.8468 236.648 71.9908 236.072 70.3268 234.92C68.6628 233.832 67.3508 232.392 66.3908 230.6C65.4308 228.744 64.9508 226.76 64.9508 224.648C64.9508 220.68 65.8148 216.808 67.5428 213.032C69.3348 209.256 71.6708 205.672 74.5508 202.28C77.4308 198.888 80.5668 195.784 83.9588 192.968C87.4148 190.088 90.8388 187.624 94.2308 185.576C97.6868 183.528 100.823 181.928 103.639 180.776C106.519 179.624 108.759 179.048 110.359 179.048C112.215 179.048 113.719 179.464 114.871 180.296C116.087 181.064 116.695 182.28 116.695 183.944C116.695 184.456 116.567 184.872 116.311 185.192C117.143 185.384 117.815 185.864 118.327 186.632C118.839 187.4 119.095 188.552 119.095 190.088C119.095 190.728 118.935 192.392 118.615 195.08C118.295 197.768 117.943 201.032 117.559 204.872C117.239 208.712 117.079 212.712 117.079 216.872C117.079 217.512 117.175 218.088 117.367 218.6C117.559 219.048 117.975 219.272 118.615 219.272C121.175 219.272 123.767 218.76 126.391 217.736C129.079 216.648 131.671 215.336 134.167 213.8C136.727 212.2 139.031 210.632 141.079 209.096C143.191 207.496 144.951 206.184 146.359 205.16C147.831 204.072 148.791 203.528 149.239 203.528C151.415 203.528 152.503 204.616 152.503 206.792C152.503 207.368 151.799 208.584 150.391 210.44C149.047 212.232 147.191 214.312 144.823 216.68C142.455 218.984 139.799 221.288 136.855 223.592C133.975 225.832 130.967 227.688 127.831 229.16C124.759 230.632 121.783 231.368 118.903 231.368C115.383 231.368 112.695 230.536 110.839 228.872C109.047 227.208 107.767 224.968 106.999 222.152C106.295 219.272 105.911 216.04 105.847 212.456C102.583 217.128 99.1908 221.288 95.6708 224.936C92.2148 228.52 88.7908 231.368 85.3988 233.48C82.0068 235.592 78.8388 236.648 75.8948 236.648ZM109.879 188.552C103.607 191.56 97.9748 195.016 92.9828 198.92C87.9908 202.76 84.0228 206.792 81.0788 211.016C78.1988 215.24 76.7588 219.304 76.7588 223.208C76.7588 224.296 77.2708 224.84 78.2948 224.84C79.5108 224.84 81.1108 224.136 83.0948 222.728C85.1428 221.32 87.3508 219.464 89.7188 217.16C92.0868 214.792 94.4548 212.168 96.8228 209.288C99.1908 206.344 101.399 203.336 103.447 200.264C105.495 197.192 107.127 194.248 108.343 191.432C108.791 190.408 109.303 189.448 109.879 188.552ZM141.886 231.464C141.886 231.464 141.854 231.464 141.79 231.464C140.766 231.464 139.742 231.304 138.718 230.984C137.694 230.664 136.862 229.736 136.222 228.2C135.582 226.6 135.262 223.912 135.262 220.136C135.262 217.512 135.614 214.312 136.318 210.536C137.022 206.76 137.918 202.696 139.006 198.344C140.158 193.928 141.406 189.544 142.75 185.192C144.094 180.84 145.374 176.776 146.59 173C147.87 169.224 148.99 165.992 149.95 163.304C150.974 160.616 151.71 158.824 152.158 157.928C152.606 156.84 153.342 155.912 154.366 155.144C155.454 154.312 156.574 153.896 157.726 153.896C160.094 153.896 161.63 154.536 162.334 155.816C163.038 157.032 163.39 158.376 163.39 159.848C163.39 161.128 162.846 164.104 161.758 168.776C160.67 173.384 158.942 180.168 156.574 189.128C161.95 188.744 167.454 188.232 173.086 187.592C178.782 186.952 183.806 186.344 188.158 185.768C189.182 181.928 190.174 178.376 191.134 175.112C192.094 171.784 192.926 169 193.63 166.76C194.334 164.456 194.814 162.92 195.07 162.152C196.094 159.784 197.182 158.152 198.334 157.256C199.55 156.36 200.798 155.912 202.078 155.912C203.742 155.912 205.15 156.456 206.302 157.544C207.518 158.568 208.126 160.296 208.126 162.728C208.126 164.264 207.71 167.112 206.878 171.272C206.046 175.432 205.022 180.136 203.806 185.384C204.766 186.024 205.598 186.792 206.302 187.688C207.07 188.584 207.454 189.416 207.454 190.184C207.454 191.208 207.198 192.2 206.686 193.16C206.238 194.056 205.214 194.856 203.614 195.56C203.166 195.752 202.366 195.976 201.214 196.232C199.998 201.16 198.814 205.896 197.662 210.44C196.574 214.92 195.646 218.76 194.878 221.96C194.11 225.096 193.662 227.112 193.534 228.008C193.15 230.376 192.446 232.36 191.422 233.96C190.398 235.624 188.83 236.456 186.718 236.456C185.118 236.456 183.806 235.72 182.782 234.248C181.758 232.776 181.246 229.768 181.246 225.224C181.246 221.832 181.598 217.896 182.302 213.416C183.006 208.872 183.87 204.232 184.894 199.496C180.094 200.264 174.91 200.936 169.342 201.512C163.774 202.024 158.334 202.248 153.022 202.184C151.166 209.416 149.63 215.176 148.414 219.464C147.262 223.752 146.206 226.824 145.246 228.68C144.286 230.536 143.166 231.464 141.886 231.464ZM218.597 259.4C215.013 259.4 211.749 259.176 208.805 258.728C205.861 258.344 202.981 257.704 200.165 256.808C197.349 255.912 194.309 254.728 191.045 253.256C189.701 252.616 188.581 251.944 187.685 251.24C186.789 250.536 186.341 249.48 186.341 248.072C186.341 246.024 186.981 244.456 188.261 243.368C189.477 242.344 191.173 241.832 193.349 241.832C194.501 241.832 195.973 242.216 197.765 242.984C199.557 243.816 201.605 244.744 203.909 245.768C206.277 246.856 208.901 247.784 211.781 248.552C214.661 249.384 217.765 249.8 221.093 249.8C224.485 249.8 227.653 248.392 230.597 245.576C233.541 242.76 235.909 238.792 237.701 233.672C239.557 228.616 240.485 222.632 240.485 215.72C240.485 214.12 240.453 212.392 240.389 210.536C240.325 208.616 240.261 206.6 240.197 204.488C237.893 208.84 235.397 212.904 232.709 216.68C230.021 220.456 227.237 223.528 224.357 225.896C221.541 228.2 218.693 229.352 215.813 229.352C212.293 229.352 209.733 228.52 208.133 226.856C206.597 225.128 205.829 222.408 205.829 218.696C205.829 215.56 206.053 212.136 206.501 208.424C207.013 204.648 207.685 200.84 208.517 197C209.349 193.16 210.309 189.512 211.397 186.056C212.549 182.536 213.765 179.496 215.045 176.936C216.005 175.08 217.477 174.152 219.461 174.152C220.741 174.152 222.021 174.76 223.301 175.976C224.645 177.192 225.317 178.824 225.317 180.872C225.317 182.024 225.029 183.688 224.453 185.864C223.877 188.04 223.173 190.504 222.341 193.256C221.573 195.944 220.773 198.792 219.941 201.8C219.109 204.744 218.405 207.656 217.829 210.536C217.253 213.352 216.965 215.912 216.965 218.216C216.965 218.472 217.157 218.6 217.541 218.6C218.309 218.6 219.333 217.96 220.613 216.68C221.957 215.336 223.429 213.608 225.029 211.496C226.693 209.32 228.357 206.952 230.021 204.392C231.749 201.768 233.413 199.176 235.013 196.616C236.613 194.056 238.053 191.72 239.333 189.608C239.141 188.584 239.013 187.688 238.949 186.92C238.949 186.088 238.949 185.384 238.949 184.808C238.949 182.184 239.397 180.008 240.293 178.28C241.253 176.552 243.109 175.688 245.861 175.688C247.653 175.688 249.029 176.36 249.989 177.704C250.949 178.984 251.429 180.808 251.429 183.176C251.429 184.2 251.269 185.384 250.949 186.728C250.629 188.008 249.989 190.056 249.029 192.872L250.085 189.896C250.661 195.656 251.141 200.776 251.525 205.256C251.973 209.736 252.197 214.184 252.197 218.6C252.197 226.92 250.789 234.12 247.973 240.2C245.221 246.344 241.317 251.08 236.261 254.408C231.269 257.736 225.381 259.4 218.597 259.4ZM263.942 236.264C259.974 236.264 256.774 234.888 254.342 232.136C251.91 229.32 250.694 224.808 250.694 218.6C250.694 214.632 251.142 210.664 252.038 206.696C252.998 202.664 254.31 198.856 255.974 195.272C257.702 191.624 259.686 188.392 261.926 185.576C264.23 182.76 266.758 180.552 269.51 178.952C272.262 177.288 275.11 176.456 278.054 176.456C283.046 176.456 286.95 177.8 289.766 180.488C292.582 183.176 293.99 186.6 293.99 190.76C293.99 193.96 293.094 196.872 291.302 199.496C289.574 202.056 287.206 204.36 284.198 206.408C281.19 208.456 277.83 210.312 274.118 211.976C270.406 213.64 266.598 215.144 262.694 216.488C262.374 218.792 262.214 220.84 262.214 222.632C262.214 223.72 262.822 224.264 264.038 224.264C266.918 224.264 269.99 223.816 273.254 222.92C276.582 221.96 279.942 220.744 283.334 219.272C286.726 217.736 289.99 216.168 293.126 214.568C296.262 212.904 299.11 211.336 301.67 209.864C304.294 208.328 306.438 207.112 308.102 206.216C309.83 205.256 310.95 204.776 311.462 204.776C312.87 204.776 313.894 205.192 314.534 206.024C315.174 206.856 315.494 207.752 315.494 208.712C315.494 209.16 314.63 210.152 312.902 211.688C311.238 213.224 308.934 215.048 305.99 217.16C303.11 219.208 299.846 221.352 296.198 223.592C292.614 225.768 288.87 227.848 284.966 229.832C281.126 231.752 277.382 233.288 273.734 234.44C270.15 235.656 266.886 236.264 263.942 236.264ZM264.326 207.944C266.95 206.408 269.542 204.808 272.102 203.144C274.726 201.416 276.902 199.496 278.63 197.384C280.358 195.208 281.222 192.68 281.222 189.8C281.222 188.968 280.998 188.424 280.55 188.168C280.102 187.848 279.462 187.688 278.63 187.688C276.39 187.688 274.342 188.68 272.486 190.664C270.694 192.648 269.094 195.208 267.686 198.344C266.342 201.416 265.222 204.616 264.326 207.944ZM351.551 237.896C349.055 237.896 347.231 237.224 346.079 235.88C344.927 234.6 344.351 232.008 344.351 228.104C344.351 224.776 344.895 220.456 345.983 215.144C347.071 209.832 348.287 204.104 349.631 197.96C342.527 205.896 334.335 210.952 325.055 213.128C323.199 216.968 321.023 220.488 318.527 223.688C316.031 226.888 313.311 229.48 310.367 231.464C307.487 233.384 304.479 234.344 301.343 234.344C297.439 234.344 294.079 233.064 291.263 230.504C288.511 227.944 287.135 224.008 287.135 218.696C287.135 215.112 287.679 212.072 288.767 209.576C289.855 207.016 291.103 205.096 292.511 203.816C291.359 201.384 290.783 198.6 290.783 195.464C290.783 191.24 291.935 187.496 294.239 184.232C296.543 180.968 299.583 178.408 303.359 176.552C307.199 174.696 311.359 173.768 315.839 173.768C318.335 173.768 320.703 174.408 322.943 175.688C325.247 176.904 327.103 178.792 328.511 181.352C329.983 183.848 330.719 187.016 330.719 190.856C330.719 194.056 330.239 197.576 329.279 201.416C333.823 198.728 338.303 195.048 342.719 190.376C347.199 185.704 351.199 180.456 354.719 174.632C355.807 172.904 357.343 172.04 359.327 172.04C360.991 172.04 362.303 172.552 363.263 173.576C364.287 174.536 364.799 175.816 364.799 177.416C364.799 177.736 364.607 178.792 364.223 180.584C363.839 182.376 363.327 184.712 362.687 187.592C362.047 190.408 361.343 193.512 360.575 196.904C359.871 200.296 359.167 203.752 358.463 207.272C357.759 210.792 357.119 214.12 356.543 217.256C358.207 214.248 359.999 211.048 361.919 207.656C363.903 204.2 365.951 200.808 368.063 197.48C370.175 194.088 372.255 191.016 374.303 188.264C376.351 185.512 378.239 183.336 379.967 181.736C381.695 180.072 383.167 179.24 384.383 179.24C386.815 179.24 388.863 179.944 390.527 181.352C392.191 182.76 393.023 184.2 393.023 185.672C393.023 187.144 392.863 189.416 392.543 192.488C392.223 195.56 391.807 199.016 391.295 202.856C390.847 206.632 390.367 210.44 389.855 214.28C389.343 218.12 388.927 221.608 388.607 224.744C388.287 227.816 388.127 230.12 388.127 231.656C388.127 232.936 387.519 234.152 386.303 235.304C385.087 236.456 383.711 237.032 382.175 237.032C382.047 237.032 381.823 237.032 381.503 237.032C380.735 237.096 380.031 236.968 379.391 236.648C378.751 236.392 378.207 235.432 377.759 233.768C377.375 232.104 377.183 229.288 377.183 225.32C377.183 222.632 377.311 219.688 377.567 216.488C377.823 213.288 378.143 210.088 378.527 206.888C378.975 203.624 379.455 200.584 379.967 197.768C378.303 200.52 376.447 203.656 374.399 207.176C372.415 210.632 370.335 214.184 368.159 217.832C365.983 221.416 363.839 224.744 361.727 227.816C359.679 230.824 357.759 233.256 355.967 235.112C354.239 236.968 352.767 237.896 351.551 237.896ZM315.455 205.832C316.287 203.336 316.959 200.744 317.471 198.056C317.983 195.304 318.239 192.616 318.239 189.992C318.239 188.904 318.015 187.848 317.567 186.824C317.119 185.8 316.351 185.288 315.263 185.288C313.087 185.288 310.943 185.736 308.831 186.632C306.783 187.528 305.087 188.808 303.743 190.472C302.399 192.136 301.727 194.12 301.727 196.424C301.727 198.472 302.399 200.2 303.743 201.608C305.151 203.016 306.879 204.072 308.927 204.776C311.039 205.48 313.119 205.832 315.167 205.832C315.231 205.832 315.327 205.832 315.455 205.832ZM311.519 214.28C309.279 214.216 307.103 213.928 304.991 213.416C302.879 212.84 300.959 212.04 299.231 211.016C299.039 212.04 298.847 213.032 298.655 213.992C298.463 214.888 298.367 215.752 298.367 216.584C298.367 217.992 298.591 219.272 299.039 220.424C299.551 221.512 300.575 222.056 302.111 222.056C303.711 222.056 305.311 221.352 306.911 219.944C308.575 218.536 310.111 216.648 311.519 214.28Z" fill="#3366FF"/>
</svg>
