<svg width="503" height="502" viewBox="0 0 503 502" fill="none" xmlns="http://www.w3.org/2000/svg">
<rect width="500" height="500" rx="40" fill="#EFEFEF"/>
<path d="M213.554 101.283C208.045 102.673 203.054 102.773 198.581 101.581C194.102 100.368 190.321 98.0642 187.237 94.6702C184.148 91.2542 181.947 86.9459 180.635 81.7454C179.322 76.5449 179.217 71.7192 180.32 67.2684C181.418 62.7955 183.653 58.9732 187.025 55.8015C190.391 52.6078 194.828 50.3156 200.337 48.925C205.846 47.5343 210.84 47.4458 215.319 48.6592C219.792 49.8507 223.573 52.1544 226.662 55.5704C229.746 58.9644 231.944 63.2617 233.257 68.4622C234.569 73.6627 234.677 78.4994 233.579 82.9723C232.476 87.4231 230.241 91.2454 226.875 94.4391C223.503 97.6108 219.063 99.892 213.554 101.283ZM210.282 87.7632C211.824 87.3738 213.027 86.5194 213.889 85.2C214.752 83.8807 215.249 82.1845 215.382 80.1116C215.515 78.0388 215.248 75.6801 214.581 73.0358C213.908 70.3695 213.023 68.1666 211.928 66.4273C210.827 64.6659 209.584 63.4092 208.199 62.6572C206.813 61.9052 205.35 61.7238 203.807 62.1132C202.176 62.5248 200.908 63.3959 200.001 64.7264C199.095 66.0569 198.575 67.7586 198.442 69.8315C198.303 71.8824 198.571 74.241 199.244 76.9073C199.911 79.5516 200.795 81.7545 201.896 83.5159C202.997 85.2773 204.262 86.5284 205.692 87.2693C207.121 88.0102 208.651 88.1748 210.282 87.7632Z" fill="#3366FF"/>
<path d="M163.519 122.446L136.706 77.4679L152.87 67.8319L179.683 112.81L163.519 122.446ZM141.995 67.9647C139.808 69.2682 137.504 69.6631 135.081 69.1495C132.658 68.6359 130.841 67.364 129.631 65.3338C128.421 63.3035 128.166 61.1006 128.866 58.725C129.567 56.3494 131.01 54.5099 133.197 53.2064C135.403 51.8914 137.707 51.4964 140.111 52.0216C142.533 52.5352 144.35 53.8071 145.56 55.8374C146.771 57.8676 147.026 60.0705 146.325 62.4462C145.644 64.8101 144.201 66.6497 141.995 67.9647Z" fill="#3366FF"/>
<path d="M109.041 76.1503L155.262 128.478L141.158 140.936L94.9367 88.6083L109.041 76.1503Z" fill="#3366FF"/>
<path d="M119.888 169.654C116.885 174.477 113.359 178.011 109.311 180.256C105.243 182.488 100.921 183.452 96.3461 183.146C91.7514 182.829 87.1776 181.252 82.6246 178.417C78.0716 175.582 74.6487 172.178 72.356 168.207C70.0439 164.224 69.0022 159.92 69.2307 155.297C69.4399 150.662 71.0463 145.932 74.0497 141.109C77.0532 136.286 80.5888 132.758 84.6565 130.526C88.7049 128.281 93.0264 127.317 97.6211 127.635C102.196 127.941 106.761 129.511 111.314 132.347C115.867 135.182 119.299 138.591 121.611 142.574C123.904 146.546 124.946 150.849 124.736 155.484C124.508 160.108 122.892 164.831 119.888 169.654ZM108.154 162.186C108.995 160.835 109.268 159.386 108.974 157.837C108.68 156.289 107.862 154.722 106.52 153.136C105.178 151.551 103.349 150.038 101.034 148.596C98.6998 147.142 96.5348 146.169 94.5393 145.676C92.5245 145.171 90.7573 145.128 89.2379 145.547C87.7184 145.966 86.5382 146.851 85.6973 148.202C84.8082 149.629 84.4987 151.137 84.7687 152.724C85.0388 154.311 85.8448 155.897 87.1868 157.483C88.5096 159.056 90.3382 160.57 92.6725 162.023C94.9876 163.465 97.1526 164.438 99.1674 164.943C101.182 165.448 102.961 165.472 104.505 165.014C106.048 164.556 107.265 163.614 108.154 162.186Z" fill="#3366FF"/>
<path d="M52.0496 189.268L65.3366 192.335L57.4541 226.482L44.1671 223.415L52.0496 189.268ZM96.6919 228.682L44.2085 216.567C40.0009 215.596 36.6869 214.038 34.2664 211.893C31.8459 209.748 30.2661 207.145 29.5269 204.082C28.7878 201.019 28.8477 197.627 29.7064 193.907C30.2432 191.582 30.9418 189.364 31.8022 187.253C32.6677 185.12 33.356 183.553 33.8671 182.552L46.4077 188.245C46.0551 188.864 45.7211 189.603 45.4059 190.463C45.0686 191.318 44.8233 192.078 44.6699 192.743C44.2712 194.47 44.3682 195.717 44.961 196.483C45.5537 197.25 46.448 197.771 47.6438 198.047L100.925 210.346L96.6919 228.682Z" fill="#3366FF"/>
<path d="M42.7107 241.359L56.3403 240.929L57.4275 275.412L43.7979 275.842L42.7107 241.359ZM31.0481 269.558L30.4551 250.75L78.4994 249.235C79.2263 249.212 79.8357 249.068 80.3276 248.802C80.7967 248.537 81.148 248.139 81.3814 247.609C81.5921 247.079 81.6846 246.406 81.6588 245.588C81.6409 245.02 81.552 244.363 81.392 243.618C81.2314 242.85 81.0999 242.286 80.9976 241.925L94.1323 238.782C94.4087 239.615 94.7533 240.809 95.1662 242.365C95.5784 243.899 95.8749 245.731 96.0558 247.863C96.419 252.172 96.0903 255.809 95.0696 258.774C94.0262 261.74 92.3125 264 89.9284 265.553C87.5443 267.106 84.523 267.918 80.8643 267.988L31.0481 269.558Z" fill="#3366FF"/>
<path d="M106.819 312.113L56.6961 327.268L51.4079 309.777L60.9365 306.896L60.7786 306.374C56.9781 306.526 53.9628 305.858 51.7326 304.372C49.4959 302.864 47.973 300.772 47.164 298.096C46.9272 297.313 46.759 296.521 46.6593 295.72C46.5313 294.904 46.4675 294.104 46.468 293.32L61.8377 288.673C61.8028 289.657 61.9066 290.825 62.1489 292.176C62.3913 293.528 62.6539 294.671 62.9367 295.607C63.4695 297.369 64.3521 298.835 65.5845 300.006C66.7887 301.161 68.2303 301.925 69.9095 302.295C71.5669 302.673 73.3528 302.572 75.2672 301.993L101.373 294.1L106.819 312.113Z" fill="#3366FF"/>
<path d="M125.985 342.633C129.32 347.233 131.265 351.83 131.818 356.426C132.353 361.035 131.617 365.401 129.609 369.524C127.583 373.66 124.399 377.303 120.057 380.451C115.715 383.6 111.273 385.488 106.73 386.115C102.169 386.755 97.7908 386.099 93.5945 384.144C89.3797 382.204 85.6045 378.933 82.269 374.334C78.9334 369.734 76.9982 365.13 76.4631 360.52C75.9097 355.925 76.646 351.559 78.6718 347.422C80.6793 343.3 83.8541 339.664 88.1962 336.515C92.5383 333.366 96.9899 331.472 101.551 330.831C106.093 330.204 110.472 330.861 114.687 332.802C118.883 334.756 122.649 338.033 125.985 342.633ZM114.644 350.688C113.71 349.4 112.471 348.6 110.926 348.289C109.381 347.978 107.621 348.145 105.646 348.791C103.672 349.436 101.581 350.559 99.3733 352.161C97.147 353.775 95.4296 355.413 94.2208 357.076C92.9937 358.752 92.288 360.373 92.1037 361.938C91.9194 363.503 92.2943 364.93 93.2282 366.218C94.2155 367.58 95.4951 368.434 97.067 368.782C98.6389 369.13 100.412 368.982 102.386 368.336C104.342 367.704 106.433 366.581 108.659 364.966C110.867 363.365 112.585 361.727 113.812 360.051C115.039 358.375 115.731 356.736 115.889 355.133C116.047 353.531 115.632 352.049 114.644 350.688Z" fill="#3366FF"/>
<path d="M194.652 399.373L158.837 459.305L132.968 443.846C128.52 441.187 125.152 437.984 122.865 434.234C120.579 430.485 119.459 426.466 119.506 422.179C119.553 417.891 120.847 413.621 123.389 409.368C125.954 405.076 129.131 401.931 132.92 399.932C136.689 397.922 140.798 397.094 145.246 397.449C149.674 397.792 154.171 399.328 158.736 402.056L174.187 411.29L166.632 423.931L154.458 416.656C152.547 415.514 150.719 414.872 148.977 414.731C147.203 414.597 145.582 414.939 144.114 415.757C142.627 416.562 141.376 417.814 140.362 419.511C139.336 421.228 138.832 422.912 138.85 424.565C138.838 426.225 139.322 427.786 140.303 429.245C141.252 430.713 142.683 432.018 144.595 433.161L150.331 436.589L178.382 389.65L194.652 399.373Z" fill="#3366FF"/>
<path d="M223.126 442.384L240.441 442.743C240.51 443.812 240.865 444.74 241.508 445.527C242.151 446.313 242.991 446.921 244.028 447.352C245.041 447.805 246.173 448.044 247.423 448.07C249.036 448.104 250.428 447.837 251.599 447.27C252.77 446.703 253.356 445.874 253.356 444.783C253.395 444.011 253.08 443.289 252.412 442.616C251.721 441.942 250.38 441.403 248.388 440.998L237.793 438.869C232.451 437.781 228.497 436.051 225.932 433.679C223.344 431.329 222.078 428.223 222.136 424.36C222.236 420.634 223.416 417.419 225.677 414.715C227.915 412.033 230.947 409.982 234.772 408.561C238.575 407.162 242.896 406.513 247.736 406.613C255.734 406.779 261.96 408.545 266.414 411.91C270.846 415.276 273.267 419.645 273.679 425.018L255.001 424.631C254.785 422.967 253.994 421.667 252.627 420.729C251.236 419.814 249.473 419.334 247.337 419.29C245.61 419.254 244.184 419.52 243.058 420.087C241.91 420.655 241.313 421.483 241.268 422.574C241.27 423.574 241.753 424.379 242.718 424.991C243.66 425.601 245.15 426.109 247.187 426.515L256.424 428.343C261.745 429.386 265.707 431.241 268.312 433.909C270.916 436.577 272.164 439.967 272.056 444.08C272.004 447.716 270.985 450.775 269.002 453.257C266.995 455.761 264.171 457.635 260.531 458.878C256.868 460.143 252.548 460.725 247.572 460.621C240.005 460.465 234.073 458.773 229.776 455.547C225.455 452.321 223.239 447.933 223.126 442.384Z" fill="#3366FF"/>
<path d="M295.614 473.273L293.691 465.32C293.167 463.155 293.085 460.884 293.445 458.505C293.789 456.154 294.41 453.888 295.308 451.706C296.19 449.552 297.188 447.685 298.303 446.106L306.788 448.123C306.245 449.938 305.862 451.983 305.641 454.258C305.419 456.533 305.677 459.194 306.415 462.243L308.338 470.195L295.614 473.273Z" fill="#3366FF"/>
<path d="M349.442 409.278L334.934 383.644L351.312 374.376L377.103 419.947L361.556 428.746L356.653 420.082L356.178 420.351C356.824 423.799 356.365 427.048 354.802 430.101C353.219 433.164 350.756 435.641 347.413 437.533C344.189 439.358 340.971 440.2 337.758 440.06C334.536 439.951 331.545 438.98 328.784 437.147C326.004 435.326 323.689 432.758 321.839 429.444L305.384 400.368L321.761 391.1L336.269 416.734C337.525 419 339.101 420.445 340.995 421.07C342.87 421.707 344.836 421.443 346.893 420.279C348.238 419.518 349.247 418.555 349.92 417.391C350.584 416.257 350.875 414.996 350.794 413.606C350.723 412.235 350.273 410.793 349.442 409.278Z" fill="#3366FF"/>
<path d="M374.623 345.846C378.077 341.334 381.926 338.156 386.172 336.311C390.435 334.48 394.829 333.936 399.354 334.681C403.897 335.439 408.298 337.448 412.557 340.707C416.816 343.967 419.896 347.684 421.796 351.857C423.715 356.044 424.338 360.428 423.666 365.008C423.012 369.602 420.958 374.155 417.505 378.667C414.052 383.179 410.193 386.35 405.93 388.181C401.684 390.026 397.29 390.57 392.747 389.812C388.223 389.068 383.83 387.066 379.571 383.806C375.312 380.546 372.223 376.822 370.305 372.635C368.405 368.462 367.781 364.078 368.435 359.484C369.107 354.904 371.17 350.358 374.623 345.846ZM385.586 354.408C384.619 355.672 384.207 357.088 384.351 358.658C384.495 360.228 385.158 361.866 386.342 363.573C387.525 365.28 389.2 366.962 391.365 368.62C393.549 370.291 395.611 371.468 397.549 372.151C399.506 372.847 401.261 373.06 402.814 372.789C404.367 372.518 405.627 371.75 406.593 370.487C407.616 369.151 408.069 367.681 407.952 366.075C407.836 364.469 407.187 362.813 406.003 361.106C404.838 359.413 403.163 357.73 400.979 356.059C398.814 354.401 396.752 353.224 394.795 352.528C392.839 351.831 391.07 351.637 389.49 351.944C387.909 352.251 386.608 353.073 385.586 354.408Z" fill="#3366FF"/>
<path d="M400.958 292.871C402.42 287.474 404.71 283.103 407.83 279.757C410.965 276.438 414.76 274.252 419.213 273.198C423.682 272.171 428.637 272.395 434.077 273.868C439.298 275.282 443.576 277.571 446.911 280.734C450.245 283.898 452.478 287.693 453.61 292.12C454.742 296.547 454.601 301.371 453.187 306.592C452.154 310.409 450.626 313.704 448.603 316.476C446.581 319.249 444.143 321.426 441.289 323.007C438.458 324.595 435.28 325.548 431.756 325.865C428.233 326.182 424.464 325.797 420.449 324.71L416.237 323.569L428.464 278.423L438.468 281.132L430.768 309.562C432.222 309.932 433.595 309.904 434.888 309.477C436.197 309.078 437.322 308.359 438.263 307.318C439.22 306.306 439.903 305.043 440.313 303.529C440.711 302.06 440.759 300.624 440.455 299.224C440.174 297.829 439.585 296.61 438.69 295.567C437.79 294.546 436.61 293.815 435.152 293.373L424.359 290.45C422.736 290.01 421.196 289.958 419.74 290.293C418.283 290.629 417.021 291.335 415.952 292.411C414.884 293.487 414.106 294.925 413.619 296.724C413.28 297.974 413.146 299.162 413.218 300.288C413.284 301.436 413.545 302.472 414.001 303.397C414.479 304.327 415.142 305.095 415.991 305.701L411.499 322.286C408.144 320.765 405.46 318.59 403.447 315.761C401.457 312.938 400.224 309.578 399.749 305.682C399.29 301.814 399.693 297.544 400.958 292.871Z" fill="#3366FF"/>
<path d="M384.934 220.069C384.659 217.928 384.566 215.866 384.655 213.884C384.721 211.905 384.942 210.146 385.318 208.609L399.094 210.964C398.749 212.566 398.58 214.009 398.584 215.291C398.591 216.597 398.822 217.678 399.276 218.537C399.733 219.417 400.46 220 401.459 220.284L402.458 220.568L454.349 195.343L456.851 214.82L421.951 227.826L422.02 228.367L459.092 232.267L461.611 251.879L402.913 240.17C399.929 239.591 397.183 238.546 394.674 237.035C392.146 235.549 390.03 233.438 388.327 230.701C386.624 227.964 385.492 224.42 384.934 220.069Z" fill="#3366FF"/>
<path d="M366.275 141.362L425.204 103.918L435.369 119.916L412.35 134.543L425.807 155.72L448.825 141.094L458.991 157.092L400.063 194.536L389.897 178.538L412.916 163.911L399.46 142.734L376.441 157.36L366.275 141.362Z" fill="#3366FF"/>
<path d="M328.639 116.641C325.842 114.813 323.667 112.74 322.115 110.422C320.593 108.097 319.839 105.595 319.853 102.916C319.866 100.237 320.824 97.442 322.727 94.5313C324.293 92.1343 326.039 90.3566 327.964 89.1981C329.901 88.0206 331.956 87.3684 334.13 87.2415C336.304 87.1146 338.547 87.4 340.861 88.0976C343.193 88.8076 345.547 89.8169 347.923 91.1254C350.501 92.5392 352.62 93.5979 354.278 94.3014C355.967 94.9984 357.306 95.3171 358.295 95.2577C359.297 95.1793 360.071 94.7215 360.618 93.8845L360.693 93.7703C361.439 92.6289 361.574 91.4678 361.096 90.2871C360.619 89.1063 359.696 88.0683 358.326 87.173C356.823 86.1907 355.378 85.7216 353.992 85.7657C352.637 85.8032 351.423 86.4351 350.35 87.6615L335.854 78.1864C337.785 75.6474 340.235 73.7466 343.206 72.4841C346.207 71.215 349.605 70.8564 353.398 71.4082C357.204 71.9409 361.285 73.631 365.642 76.4785C368.781 78.5302 371.354 80.7415 373.361 83.1124C375.381 85.4642 376.837 87.8684 377.729 90.3251C378.634 92.7627 378.971 95.155 378.74 97.5021C378.54 99.8425 377.775 102.031 376.445 104.066L356.823 134.086L342.099 124.462L346.127 118.298L345.785 118.074C343.841 119.138 341.911 119.764 339.996 119.952C338.101 120.152 336.205 119.958 334.308 119.37C332.431 118.794 330.541 117.885 328.639 116.641ZM340.266 110.068C341.464 110.851 342.749 111.338 344.118 111.527C345.507 111.729 346.839 111.581 348.114 111.084C349.389 110.587 350.462 109.673 351.332 108.341L353.72 104.689C353.189 104.586 352.636 104.456 352.061 104.297C351.505 104.151 350.917 103.97 350.298 103.755C349.697 103.553 349.064 103.316 348.4 103.044C347.755 102.786 347.087 102.498 346.397 102.183C345.055 101.578 343.851 101.239 342.785 101.167C341.751 101.088 340.838 101.238 340.047 101.617C339.288 101.989 338.66 102.556 338.162 103.317C337.366 104.535 337.185 105.747 337.618 106.953C338.052 108.159 338.934 109.198 340.266 110.068Z" fill="#3366FF"/>
<path d="M295.612 53.2272C295.502 51.9918 295.201 50.8767 294.709 49.8819C294.221 48.8646 293.553 47.9694 292.706 47.1961C291.884 46.4038 290.88 45.7559 289.692 45.2525C288.531 44.7301 287.22 44.3573 285.759 44.1341C282.614 43.6533 279.814 43.9956 277.36 45.1609C274.928 46.3296 272.912 48.2401 271.311 50.8923C269.732 53.5479 268.638 56.8752 268.026 60.8742C267.408 64.9182 267.43 68.4621 268.091 71.5061C268.752 74.55 270.056 77.0024 272.002 78.8632C273.947 80.724 276.538 81.9017 279.773 82.3961C282.626 82.8322 285.06 82.7789 287.074 82.2361C289.111 81.6967 290.718 80.7353 291.895 79.3518C293.072 77.9683 293.819 76.2431 294.134 74.1762L297.318 75.0077L281.547 72.5971L283.586 59.2521L314.186 63.9291L312.723 73.4997C311.761 79.7903 309.602 84.9667 306.245 89.0289C302.914 93.072 298.73 95.9271 293.693 97.5943C288.682 99.2425 283.166 99.6064 277.145 98.6861C270.428 97.6594 264.748 95.3313 260.107 91.7021C255.466 88.0728 252.122 83.4003 250.076 77.6846C248.052 71.9723 247.596 65.4766 248.709 58.1975C249.581 52.4911 251.219 47.5683 253.622 43.4293C256.047 39.2938 259.042 35.9465 262.606 33.3874C266.173 30.8058 270.109 29.0507 274.412 28.1221C278.719 27.171 283.197 27.0509 287.848 27.7617C291.937 28.3867 295.644 29.5511 298.97 31.2551C302.323 32.94 305.184 35.0556 307.553 37.602C309.949 40.1293 311.756 42.9691 312.976 46.1214C314.196 49.2737 314.721 52.6072 314.551 56.122L295.612 53.2272Z" fill="#3366FF"/>
</svg>
