<svg width="500" height="500" viewBox="0 0 500 500" fill="none" xmlns="http://www.w3.org/2000/svg">
<rect width="500" height="500" rx="120" fill="#EFEFEF"/>
<path d="M178.141 317C173.021 317 168.157 315.891 163.549 313.672C159.026 311.368 155.314 308.125 152.413 303.944C149.597 299.677 148.189 294.685 148.189 288.968C148.189 283.336 149.383 277.747 151.773 272.2C154.162 266.568 157.277 261.149 161.117 255.944C165.042 250.653 169.266 245.747 173.789 241.224C178.397 236.701 182.877 232.776 187.229 229.448C191.666 226.035 195.591 223.389 199.005 221.512C202.503 219.549 205.063 218.568 206.685 218.568C208.391 218.568 210.141 219.293 211.933 220.744C213.725 222.195 214.663 224.285 214.749 227.016C214.749 228.211 214.407 229.576 213.725 231.112C213.042 232.648 211.463 234.184 208.989 235.72C206.855 237 203.997 238.877 200.413 241.352C196.914 243.827 193.202 246.728 189.277 250.056C185.351 253.384 181.597 257.096 178.013 261.192C174.514 265.203 171.655 269.469 169.437 273.992C167.218 278.515 166.109 283.165 166.109 287.944C166.109 291.869 167.261 294.856 169.565 296.904C171.869 298.867 174.983 299.848 178.909 299.848C181.639 299.848 184.882 299.08 188.637 297.544C192.477 296.008 196.402 294.045 200.413 291.656C204.423 289.181 208.093 286.536 211.421 283.72C214.834 280.904 217.479 278.216 219.357 275.656C216.114 276.339 212.53 277.107 208.605 277.96C204.765 278.728 201.181 279.411 197.853 280.008C194.525 280.52 192.135 280.776 190.685 280.776C188.125 280.776 185.991 280.264 184.285 279.24C182.578 278.216 181.298 277.021 180.445 275.656C179.591 274.205 179.165 272.84 179.165 271.56C179.165 270.109 179.719 268.616 180.829 267.08C181.938 265.544 183.858 264.563 186.589 264.136C188.381 263.88 190.813 263.496 193.885 262.984C196.957 262.387 200.157 261.832 203.485 261.32C206.898 260.723 210.013 260.211 212.829 259.784C215.73 259.357 217.906 259.144 219.357 259.144C230.109 259.144 235.485 265.16 235.485 277.192C235.485 279.496 234.29 282.355 231.901 285.768C229.511 289.096 226.269 292.595 222.173 296.264C218.162 299.848 213.639 303.219 208.605 306.376C203.57 309.533 198.407 312.093 193.117 314.056C187.911 316.019 182.919 317 178.141 317ZM255.679 314.952C255.679 314.952 255.636 314.952 255.551 314.952C254.185 314.952 252.82 314.739 251.455 314.312C250.089 313.885 248.98 312.648 248.127 310.6C247.273 308.467 246.847 304.883 246.847 299.848C246.847 296.349 247.316 292.083 248.255 287.048C249.193 282.013 250.388 276.595 251.839 270.792C253.375 264.904 255.039 259.059 256.831 253.256C258.623 247.453 260.329 242.035 261.951 237C263.657 231.965 265.151 227.656 266.431 224.072C267.796 220.488 268.777 218.099 269.375 216.904C269.972 215.453 270.953 214.216 272.319 213.192C273.769 212.083 275.263 211.528 276.799 211.528C279.956 211.528 282.004 212.381 282.943 214.088C283.881 215.709 284.351 217.501 284.351 219.464C284.351 221.171 283.625 225.139 282.175 231.368C280.724 237.512 278.42 246.557 275.263 258.504C282.431 257.992 289.769 257.309 297.279 256.456C304.873 255.603 311.572 254.792 317.375 254.024C318.74 248.904 320.063 244.168 321.343 239.816C322.623 235.379 323.732 231.667 324.671 228.68C325.609 225.608 326.249 223.56 326.591 222.536C327.956 219.379 329.407 217.203 330.943 216.008C332.564 214.813 334.228 214.216 335.935 214.216C338.153 214.216 340.031 214.941 341.567 216.392C343.188 217.757 343.999 220.061 343.999 223.304C343.999 225.352 343.444 229.149 342.335 234.696C341.225 240.243 339.86 246.515 338.239 253.512C339.519 254.365 340.628 255.389 341.567 256.584C342.591 257.779 343.103 258.888 343.103 259.912C343.103 261.277 342.761 262.6 342.079 263.88C341.481 265.075 340.116 266.141 337.983 267.08C337.385 267.336 336.319 267.635 334.783 267.976C333.161 274.547 331.583 280.861 330.047 286.92C328.596 292.893 327.359 298.013 326.335 302.28C325.311 306.461 324.713 309.149 324.543 310.344C324.031 313.501 323.092 316.147 321.727 318.28C320.361 320.499 318.271 321.608 315.455 321.608C313.321 321.608 311.572 320.627 310.207 318.664C308.841 316.701 308.159 312.691 308.159 306.632C308.159 302.109 308.628 296.861 309.567 290.888C310.505 284.829 311.657 278.643 313.023 272.328C306.623 273.352 299.711 274.248 292.287 275.016C284.863 275.699 277.609 275.997 270.527 275.912C268.052 285.555 266.004 293.235 264.383 298.952C262.847 304.669 261.439 308.765 260.159 311.24C258.879 313.715 257.385 314.952 255.679 314.952Z" fill="#3366FF"/>
</svg>
