<svg width="300" height="300" viewBox="0 0 300 300" fill="none" xmlns="http://www.w3.org/2000/svg">
<rect width="300" height="300" rx="120" fill="#EFEFEF"/>
<path d="M78.1405 200C73.0205 200 68.1565 198.891 63.5485 196.672C59.0258 194.368 55.3138 191.125 52.4125 186.944C49.5965 182.677 48.1885 177.685 48.1885 171.968C48.1885 166.336 49.3832 160.747 51.7725 155.2C54.1618 149.568 57.2765 144.149 61.1165 138.944C65.0418 133.653 69.2658 128.747 73.7885 124.224C78.3965 119.701 82.8765 115.776 87.2285 112.448C91.6658 109.035 95.5912 106.389 99.0045 104.512C102.503 102.549 105.063 101.568 106.685 101.568C108.391 101.568 110.141 102.293 111.933 103.744C113.725 105.195 114.663 107.285 114.749 110.016C114.749 111.211 114.407 112.576 113.725 114.112C113.042 115.648 111.463 117.184 108.989 118.72C106.855 120 103.997 121.877 100.413 124.352C96.9138 126.827 93.2018 129.728 89.2765 133.056C85.3512 136.384 81.5965 140.096 78.0125 144.192C74.5138 148.203 71.6552 152.469 69.4365 156.992C67.2178 161.515 66.1085 166.165 66.1085 170.944C66.1085 174.869 67.2605 177.856 69.5645 179.904C71.8685 181.867 74.9832 182.848 78.9085 182.848C81.6392 182.848 84.8818 182.08 88.6365 180.544C92.4765 179.008 96.4018 177.045 100.413 174.656C104.423 172.181 108.093 169.536 111.421 166.72C114.834 163.904 117.479 161.216 119.357 158.656C116.114 159.339 112.53 160.107 108.605 160.96C104.765 161.728 101.181 162.411 97.8525 163.008C94.5245 163.52 92.1352 163.776 90.6845 163.776C88.1245 163.776 85.9912 163.264 84.2845 162.24C82.5778 161.216 81.2978 160.021 80.4445 158.656C79.5912 157.205 79.1645 155.84 79.1645 154.56C79.1645 153.109 79.7192 151.616 80.8285 150.08C81.9378 148.544 83.8578 147.563 86.5885 147.136C88.3805 146.88 90.8125 146.496 93.8845 145.984C96.9565 145.387 100.157 144.832 103.485 144.32C106.898 143.723 110.013 143.211 112.829 142.784C115.73 142.357 117.906 142.144 119.357 142.144C130.109 142.144 135.485 148.16 135.485 160.192C135.485 162.496 134.29 165.355 131.901 168.768C129.511 172.096 126.269 175.595 122.173 179.264C118.162 182.848 113.639 186.219 108.605 189.376C103.57 192.533 98.4072 195.093 93.1165 197.056C87.9112 199.019 82.9192 200 78.1405 200ZM155.679 197.952C155.679 197.952 155.636 197.952 155.551 197.952C154.185 197.952 152.82 197.739 151.455 197.312C150.089 196.885 148.98 195.648 148.127 193.6C147.273 191.467 146.847 187.883 146.847 182.848C146.847 179.349 147.316 175.083 148.255 170.048C149.193 165.013 150.388 159.595 151.839 153.792C153.375 147.904 155.039 142.059 156.831 136.256C158.623 130.453 160.329 125.035 161.951 120C163.657 114.965 165.151 110.656 166.431 107.072C167.796 103.488 168.777 101.099 169.375 99.904C169.972 98.4533 170.953 97.216 172.319 96.192C173.769 95.0827 175.263 94.528 176.799 94.528C179.956 94.528 182.004 95.3813 182.943 97.088C183.881 98.7093 184.351 100.501 184.351 102.464C184.351 104.171 183.625 108.139 182.175 114.368C180.724 120.512 178.42 129.557 175.263 141.504C182.431 140.992 189.769 140.309 197.279 139.456C204.873 138.603 211.572 137.792 217.375 137.024C218.74 131.904 220.063 127.168 221.343 122.816C222.623 118.379 223.732 114.667 224.671 111.68C225.609 108.608 226.249 106.56 226.591 105.536C227.956 102.379 229.407 100.203 230.943 99.008C232.564 97.8133 234.228 97.216 235.935 97.216C238.153 97.216 240.031 97.9413 241.567 99.392C243.188 100.757 243.999 103.061 243.999 106.304C243.999 108.352 243.444 112.149 242.335 117.696C241.225 123.243 239.86 129.515 238.239 136.512C239.519 137.365 240.628 138.389 241.567 139.584C242.591 140.779 243.103 141.888 243.103 142.912C243.103 144.277 242.761 145.6 242.079 146.88C241.481 148.075 240.116 149.141 237.983 150.08C237.385 150.336 236.319 150.635 234.783 150.976C233.161 157.547 231.583 163.861 230.047 169.92C228.596 175.893 227.359 181.013 226.335 185.28C225.311 189.461 224.713 192.149 224.543 193.344C224.031 196.501 223.092 199.147 221.727 201.28C220.361 203.499 218.271 204.608 215.455 204.608C213.321 204.608 211.572 203.627 210.207 201.664C208.841 199.701 208.159 195.691 208.159 189.632C208.159 185.109 208.628 179.861 209.567 173.888C210.505 167.829 211.657 161.643 213.023 155.328C206.623 156.352 199.711 157.248 192.287 158.016C184.863 158.699 177.609 158.997 170.527 158.912C168.052 168.555 166.004 176.235 164.383 181.952C162.847 187.669 161.439 191.765 160.159 194.24C158.879 196.715 157.385 197.952 155.679 197.952Z" fill="#3366FF"/>
</svg>
